<?xml version="1.0" encoding="iso-8859-1"?>
<!-- Uploaded to: SVG Repo, www.svgrepo.com, Generator: SVG Repo Mixer Tools -->
<svg fill="#000000" height="800px" width="800px" version="1.1" id="Layer_1" xmlns="http://www.w3.org/2000/svg" xmlns:xlink="http://www.w3.org/1999/xlink" 
	 viewBox="0 0 512 512" xml:space="preserve">
<g>
	<g>
		<path d="M362.667,170.667c11.782,0,21.333-9.551,21.333-21.333v-64C384,73.551,374.449,64,362.667,64h-21.333V21.333
			C341.333,9.551,331.782,0,320,0H192c-11.782,0-21.333,9.551-21.333,21.333V64h-21.333C137.551,64,128,73.551,128,85.333v64
			c0,11.782,9.551,21.333,21.333,21.333h21.333v170.667h-21.333c-11.782,0-21.333,9.551-21.333,21.333v64
			c0,11.782,9.551,21.333,21.333,21.333h21.333v42.667c0,11.782,9.551,21.333,21.333,21.333h128
			c11.782,0,21.333-9.551,21.333-21.333V448h21.333c11.782,0,21.333-9.551,21.333-21.333v-64c0-11.782-9.551-21.333-21.333-21.333
			h-21.333V170.667H362.667z M213.333,42.667h85.333V64h-85.333V42.667z M170.667,106.667H192h128h21.333V128H320H192h-21.333
			V106.667z M298.667,469.333h-85.333V448h85.333V469.333z M341.333,405.333H320H192h-21.333V384H192h128h21.333V405.333z
			 M298.667,341.333h-85.333V170.667h85.333V341.333z"/>
	</g>
</g>
</svg>