<?xml version="1.0" encoding="iso-8859-1"?>
<!-- Uploaded to: SVG Repo, www.svgrepo.com, Generator: SVG Repo Mixer Tools -->
<!DOCTYPE svg PUBLIC "-//W3C//DTD SVG 1.1//EN" "http://www.w3.org/Graphics/SVG/1.1/DTD/svg11.dtd">
<svg fill="#000000" height="800px" width="800px" version="1.1" id="Capa_1" xmlns="http://www.w3.org/2000/svg" xmlns:xlink="http://www.w3.org/1999/xlink" 
	 viewBox="0 0 176.821 176.821" xml:space="preserve">
<path d="M174.624,31.043L145.779,2.197c-2.928-2.929-7.677-2.929-10.607,0c-2.929,2.929-2.929,7.677,0,10.607l9.119,9.119
	l-11.178,11.178L120.512,20.5c-2.929-2.93-7.678-2.929-10.606,0L71.348,59.057c-0.005,0.005-0.01,0.009-0.015,0.014
	c-0.005,0.005-0.009,0.01-0.014,0.015L32.763,97.643c-2.929,2.929-2.929,7.678,0,10.606l3.755,3.755L26.37,122.152
	c-1.407,1.407-2.197,3.314-2.197,5.304c0,1.989,0.79,3.897,2.197,5.303l3.543,3.544L2.197,164.018
	c-2.929,2.929-2.929,7.678,0,10.607c1.464,1.464,3.384,2.197,5.303,2.197c1.92,0,3.839-0.732,5.303-2.197l27.715-27.715l3.542,3.542
	c1.406,1.407,3.314,2.197,5.303,2.197c1.989,0,3.897-0.79,5.304-2.197l10.148-10.148l3.757,3.757
	c1.406,1.407,3.314,2.197,5.303,2.197c1.989,0,3.897-0.79,5.303-2.197l77.144-77.145c1.407-1.406,2.197-3.314,2.197-5.303
	c0-1.989-0.79-3.897-2.197-5.303L143.72,43.707l11.178-11.178l9.12,9.12c1.464,1.465,3.384,2.197,5.303,2.197
	c1.919,0,3.839-0.732,5.303-2.197C177.553,38.72,177.553,33.972,174.624,31.043z M49.365,134.542l-7.085-7.085l4.816-4.816
	l7.084,7.085L49.365,134.542z M115.209,36.409l7.298,7.298L94.542,71.673l-7.298-7.298L115.209,36.409z M73.876,128.15
	l-25.204-25.204l27.965-27.965l25.204,25.204L73.876,128.15z M140.413,61.612l-27.965,27.966l-7.299-7.299l27.965-27.965
	L140.413,61.612z"/>
</svg>